<svg width="24" height="25" viewBox="0 0 24 25" fill="none" xmlns="http://www.w3.org/2000/svg">
<path d="M20 11.6655H22C22 6.5355 18.127 2.6665 12.99 2.6665V4.6665C17.052 4.6665 20 7.6095 20 11.6655Z" fill="#1F1F1F"/>
<path d="M13 8.6665C15.103 8.6665 16 9.5635 16 11.6665H18C18 8.4415 16.225 6.6665 13 6.6665V8.6665ZM16.422 14.1095C16.2299 13.9349 15.9774 13.8417 15.7178 13.8497C15.4583 13.8578 15.212 13.9663 15.031 14.1525L12.638 16.6135C12.062 16.5035 10.904 16.1425 9.71201 14.9535C8.52001 13.7605 8.15901 12.5995 8.05201 12.0275L10.511 9.6335C10.6974 9.45263 10.8061 9.20632 10.8142 8.94671C10.8222 8.68709 10.7289 8.43454 10.554 8.2425L6.85901 4.1795C6.68405 3.98686 6.44089 3.87 6.18116 3.85376C5.92143 3.83751 5.66561 3.92316 5.46801 4.0925L3.29801 5.9535C3.12512 6.12701 3.02193 6.35795 3.00801 6.6025C2.99301 6.8525 2.70701 12.7745 7.29901 17.3685C11.305 21.3735 16.323 21.6665 17.705 21.6665C17.907 21.6665 18.031 21.6605 18.064 21.6585C18.3085 21.6448 18.5393 21.5412 18.712 21.3675L20.572 19.1965C20.7415 18.999 20.8273 18.7433 20.8112 18.4836C20.7952 18.2238 20.6785 17.9806 20.486 17.8055L16.422 14.1095Z" fill="#1F1F1F"/>
</svg>
