<svg width="24" height="25" viewBox="0 0 24 25" fill="none" xmlns="http://www.w3.org/2000/svg">
<path d="M12 2.1665C9.81276 2.16908 7.71584 3.03911 6.16923 4.58572C4.62261 6.13234 3.75259 8.22926 3.75001 10.4165C3.74739 12.2039 4.33124 13.9428 5.41201 15.3665C5.41201 15.3665 5.63701 15.6628 5.67376 15.7055L12 23.1665L18.3293 15.7018C18.3623 15.662 18.588 15.3665 18.588 15.3665L18.5888 15.3643C19.669 13.9412 20.2526 12.2031 20.25 10.4165C20.2474 8.22926 19.3774 6.13234 17.8308 4.58572C16.2842 3.03911 14.1873 2.16908 12 2.1665ZM12 13.4165C11.4067 13.4165 10.8266 13.2406 10.3333 12.9109C9.83995 12.5813 9.45543 12.1127 9.22837 11.5646C9.00131 11.0164 8.9419 10.4132 9.05765 9.83123C9.17341 9.24929 9.45913 8.71474 9.87869 8.29518C10.2982 7.87563 10.8328 7.5899 11.4147 7.47415C11.9967 7.35839 12.5999 7.4178 13.1481 7.64487C13.6962 7.87193 14.1648 8.25645 14.4944 8.74979C14.8241 9.24314 15 9.82316 15 10.4165C14.999 11.2118 14.6826 11.9743 14.1202 12.5367C13.5578 13.0991 12.7954 13.4155 12 13.4165Z" fill="#1F1F1F"/>
</svg>
